<svg class="gthn-logo" xmlns="http://www.w3.org/2000/svg" viewBox="0 0 296 50">
      <path d="M18 5C20 0 25 0 30 0L86 0 84 5C82 10 77 10 72 10L48 10C43 10 38 10 36 15L26 40 38 40C43 40 48 40 50 35L52 30 41 30 43 25C45 20 50 20 55 20L78 20 68 45C66 50 61 50 56 50L0 50 18 5ZM88 5C90 0 95 0 100 0L156 0 154 5C152 10 147 10 142 10L140 10C135 10 130 10 128 15L116 45C114 50 109 50 104 50L92 50 108 10 86 10 88 5ZM158 5C160 0 165 0 170 0L182 0 174 20 186 20C191 20 196 20 198 15L202 5C204 0 209 0 214 0L226 0 208 45C206 50 201 50 196 50L184 50 192 30 180 30C175 30 170 30 168 35L164 45C162 50 157 50 152 50L140 50 158 5ZM228 5C230 0 235 0 240 0L296 0 278 45C276 50 271 50 266 50L254 50 270 10 258 10C253 10 248 10 246 15L234 45C232 50 227 50 222 50L210 50 228 5Z" fill="#000"></path>
    </svg>